<svg width="1151" height="323" viewBox="0 0 1151 323" fill="none" xmlns="http://www.w3.org/2000/svg">
  <!-- Background -->
  <path fill-rule="evenodd" clip-rule="evenodd" d="M0 24C0 15.5992 0 11.3988 1.6349 8.19014C3.073 5.36771 5.36771 3.073 8.19014 1.6349C11.3988 0 15.5992 0 24 0H1127C1135.4 0 1139.6 0 1142.81 1.6349C1145.63 3.073 1147.93 5.36771 1149.37 8.19014C1151 11.3988 1151 15.5992 1151 24V299C1151 307.401 1151 311.601 1149.37 314.81C1147.93 317.632 1145.63 319.927 1142.81 321.365C1139.6 323 1135.4 323 1127 323H24C15.5992 323 11.3988 323 8.19014 321.365C5.36771 319.927 3.073 317.632 1.6349 314.81C0 311.601 0 307.401 0 299V24Z" fill="#009247"/>

  <!-- Circles in random positions -->
  <svg x="100" y="50" width="146" height="147" viewBox="0 0 146 147" fill="none">
    <path d="M133.5 73.5C133.5 107.27 106.333 134.5 73 134.5C39.6671 134.5 12.5 107.27 12.5 73.5C12.5 39.73 39.6671 12.5 73 12.5C106.333 12.5 133.5 39.73 133.5 73.5Z" stroke="white" stroke-opacity="0.05" stroke-width="25"/>
  </svg>
  
  <svg x="300" y="200" width="60" height="59" viewBox="0 0 60 59" fill="none">
    <path d="M54 29.5C54 42.384 43.3503 53 30 53C16.6497 53 6 42.384 6 29.5C6 16.616 16.6497 6 30 6C43.3503 6 54 16.616 54 29.5Z" stroke="#54B435" stroke-opacity="0.5" stroke-width="12"/>
  </svg>
  
  <svg x="500" y="100" width="73" height="72" viewBox="0 0 73 72" fill="none">
    <path d="M67 36C67 52.4908 53.423 66 36.5 66C19.577 66 6 52.4908 6 36C6 19.5092 19.577 6 36.5 6C53.423 6 67 19.5092 67 36Z" stroke="#54B435" stroke-opacity="0.5" stroke-width="12"/>
  </svg>
  
  <svg x="800" y="50" width="152" height="152" viewBox="0 0 152 152" fill="none">
    <circle cx="76" cy="76" r="64" stroke="white" stroke-opacity="0.05" stroke-width="24"/>
  </svg>
  
  <svg x="950" y="250" width="44" height="43" viewBox="0 0 44 43" fill="none">
    <path d="M38 21.5C38 29.9311 30.9673 37 22 37C13.0327 37 6 29.9311 6 21.5C6 13.0689 13.0327 6 22 6C30.9673 6 38 13.0689 38 21.5Z" stroke="#54B435" stroke-opacity="0.5" stroke-width="12"/>
  </svg>
</svg>


